<?xml version="1.0" encoding="UTF-8"?>
<svg version="1.1" xmlns="http://www.w3.org/2000/svg" width="512" height="512">
<path d="M0 0 C15.58771328 12.43774447 26.38398551 29.03839188 29 49 C30.86106006 69.84631602 26.83930036 89.0822946 13.6875 105.8125 C8.45679865 111.87760139 2.67827476 117.54781682 -4 122 C-3.47792969 122.1952124 -2.95585937 122.3904248 -2.41796875 122.59155273 C28.11614993 134.11871728 54.39291464 151.83019982 72 180 C72.38736328 180.61278809 72.77472656 181.22557617 73.17382812 181.85693359 C83.45123513 198.36935728 94.07736469 222.0687533 93 242 C90.96774194 247.51612903 90.96774194 247.51612903 88 249 C86.53945299 249.09650186 85.07458499 249.1309694 83.61085701 249.13422108 C82.68275849 249.13867892 81.75465996 249.14313676 80.79843724 249.14772969 C79.77199915 249.14754533 78.74556107 249.14736097 77.6880188 249.14717102 C76.60290728 249.15084771 75.51779577 249.1545244 74.39980209 249.1583125 C70.73934904 249.16938473 67.07892435 249.17319913 63.41845703 249.17700195 C60.80399484 249.18326382 58.18953355 249.18991037 55.57507324 249.19691467 C47.71227304 249.21668784 39.84947153 249.22674575 31.98665267 249.23564246 C28.28629619 249.24002342 24.58594114 249.24539068 20.88558578 249.25063133 C8.58929555 249.26764343 -3.70699379 249.2821389 -16.00329399 249.28938007 C-19.1950671 249.29129004 -22.3868402 249.29321037 -25.57861328 249.29516602 C-26.76859821 249.29589163 -26.76859821 249.29589163 -27.98262323 249.2966319 C-40.84175943 249.30493704 -53.70080275 249.33028217 -66.55989836 249.36274669 C-79.75400767 249.39578623 -92.94806971 249.41382596 -106.14222062 249.41702431 C-113.5535706 249.41919216 -120.96478508 249.42798079 -128.37609482 249.45348549 C-135.3445924 249.47741064 -142.31284196 249.48103775 -149.28137207 249.47072411 C-151.84366796 249.47022635 -154.40597551 249.47661672 -156.96823502 249.49028015 C-160.45713811 249.50784896 -163.94514945 249.5009665 -167.43405151 249.48774719 C-168.96701648 249.50420106 -168.96701648 249.50420106 -170.53095043 249.52098733 C-177.35963668 249.45820436 -177.35963668 249.45820436 -180.60739326 247.13431072 C-184.31399539 241.45356794 -182.68082269 235.43082102 -181.4375 229.1875 C-181.25477539 228.26042236 -181.07205078 227.33334473 -180.88378906 226.37817383 C-173.7616741 192.059586 -152.92706214 159.76193425 -123.58203125 140.26953125 C-122.39174096 139.507181 -121.1976428 138.7507467 -120 138 C-119.38044434 137.61118652 -118.76088867 137.22237305 -118.12255859 136.82177734 C-107.91199372 130.53057629 -97.26432833 126.0546367 -86 122 C-86.70125 121.45472656 -87.4025 120.90945313 -88.125 120.34765625 C-104.58105411 107.26777628 -115.44681041 90.97386291 -119 70 C-120.88771796 49.41478674 -116.86550482 30.0931777 -104 13.5625 C-102.68415345 12.02651183 -101.35211489 10.50415994 -100 9 C-99.48179687 8.38898438 -98.96359375 7.77796875 -98.4296875 7.1484375 C-73.17175669 -20.64797882 -29.12201161 -21.25350921 0 0 Z M-87 21 C-87.85851562 21.84498047 -87.85851562 21.84498047 -88.734375 22.70703125 C-98.98226668 33.56240105 -102.69037634 48.58174739 -102.34765625 63.125 C-100.81401206 80.21910152 -93.26130662 92.59837504 -80.80859375 104.0078125 C-68.85872928 113.88408689 -54.21048842 117.8170587 -38.84765625 116.7890625 C-22.92208858 114.57078369 -9.29053831 106.22240517 1 94 C10.03095697 81.59581997 13.53244427 67.21385397 12 52 C9.25688446 35.97955602 1.72481248 22.91061675 -11.140625 12.95703125 C-35.93298609 -4.01151097 -66.22416992 -0.42988399 -87 21 Z M-136.66015625 174.83984375 C-149.11410006 189.18016545 -164 212.31010866 -164 232 C-85.46 232 -6.92 232 74 232 C68.38893568 201.13914626 51.11920245 174.76795025 26 156 C14.65411045 148.17573824 2.51010845 142.12923727 -10.6875 138.1875 C-11.66541504 137.89516479 -11.66541504 137.89516479 -12.66308594 137.59692383 C-58.48937673 124.73449758 -104.8381611 140.86834526 -136.66015625 174.83984375 Z " fill="#000000" transform="translate(301,256)"/>
<path d="M0 0 C1.1495668 -0.00571014 2.29913361 -0.01142029 3.48353577 -0.01730347 C4.74077957 -0.01842133 5.99802338 -0.01953918 7.29336548 -0.02069092 C8.63395829 -0.02532144 9.97454979 -0.03034642 11.31513977 -0.03573608 C14.95361899 -0.04883808 18.59207978 -0.05530054 22.2305789 -0.05974674 C24.50476166 -0.06268055 26.77893942 -0.0667859 29.05311966 -0.07125092 C36.17155253 -0.08491901 43.28997393 -0.09458947 50.40841901 -0.09845281 C58.62028492 -0.10293438 66.83198444 -0.12048965 75.04379976 -0.1494534 C81.39551743 -0.17107755 87.74718831 -0.18115745 94.0989424 -0.18249393 C97.89080877 -0.18354128 101.6825186 -0.18943427 105.47434616 -0.20731354 C109.04159278 -0.22380739 112.60856537 -0.22594352 116.17583656 -0.21717453 C118.10458495 -0.21603868 120.03332429 -0.22974524 121.96202087 -0.243927 C129.56298294 -0.20728341 134.26385867 0.39763552 140.10830688 5.57794189 C143.49935208 9.43996559 144.60631512 12.0679298 144.62573242 17.20594788 C144.63852737 18.73881187 144.63852737 18.73881187 144.65158081 20.30264282 C144.65022125 21.97576035 144.65022125 21.97576035 144.64883423 23.68267822 C144.65555145 24.86195389 144.66226868 26.04122955 144.66918945 27.25624084 C144.68493224 30.48781605 144.69154454 33.71923699 144.69282103 36.95084596 C144.69424389 38.97177048 144.69851609 40.99266819 144.70381546 43.01358604 C144.72231459 50.06964194 144.73048641 57.12562232 144.72891235 64.18170166 C144.72771167 70.74942973 144.74879967 77.31682878 144.78039968 83.88447362 C144.80659302 89.53049249 144.81727834 95.17640412 144.81600153 100.82248324 C144.8154927 104.1913365 144.82113154 107.55989744 144.84235764 110.92868996 C144.8619604 114.68941121 144.85620072 118.44928701 144.84414673 122.21002197 C144.85538574 123.31936096 144.86662476 124.42869995 144.87820435 125.57165527 C144.82600401 131.98311636 144.22347329 135.9486151 140.35830688 141.14044189 C135.47132859 144.93034343 131.91059199 146.26283177 125.79890442 146.28088379 C124.64229813 146.28659393 123.48569183 146.29230408 122.29403687 146.29818726 C121.02384705 146.29930511 119.75365723 146.30042297 118.44497681 146.30157471 C117.09467941 146.30620371 115.74438332 146.31122848 114.39408875 146.31661987 C110.72455957 146.32973832 107.05504868 146.33618779 103.38549972 146.34063053 C101.09239376 146.34356227 98.79929279 146.34766728 96.50618935 146.3521347 C89.33008796 146.36580843 82.15399799 146.37547559 74.97788447 146.3793366 C66.69695847 146.38381662 58.41619759 146.40136237 50.1353218 146.43033719 C43.73266932 146.45196162 37.33006327 146.46204129 30.92737466 146.46337771 C27.1041948 146.46442524 23.28117018 146.47032168 19.45802879 146.48819733 C15.86042742 146.50469118 12.26309777 146.50682729 8.66547203 146.49805832 C6.72001545 146.49692236 4.77456783 146.51062976 2.8291626 146.52481079 C-4.07592683 146.49180364 -9.24359467 146.33907125 -14.50497437 141.38653564 C-15.22233765 140.49128174 -15.22233765 140.49128174 -15.95419312 139.57794189 C-16.44532593 138.97852783 -16.93645874 138.37911377 -17.44247437 137.76153564 C-19.62030247 134.81756605 -19.7715131 132.92239864 -19.78886414 129.30871582 C-19.79601944 128.28811066 -19.80317474 127.26750549 -19.81054688 126.2159729 C-19.81323578 125.09179962 -19.81592468 123.96762634 -19.81869507 122.80938721 C-19.82526627 121.6287973 -19.83183746 120.4482074 -19.83860779 119.23184204 C-19.85837706 115.31075694 -19.87001188 111.3896852 -19.87997437 107.46856689 C-19.88402196 106.11841562 -19.88813888 104.76826456 -19.89232445 103.41811371 C-19.91137874 97.07388474 -19.92560827 90.72966741 -19.93393642 84.38541532 C-19.94370491 77.06489326 -19.97001289 69.74467389 -20.01043731 62.42425847 C-20.04061605 56.76472063 -20.05540701 51.10526945 -20.05871743 45.44565272 C-20.06106631 42.06616336 -20.07000462 38.68699726 -20.0951786 35.3075943 C-20.11946852 31.53450812 -20.11862297 27.76221478 -20.11166382 23.98907471 C-20.12447388 22.87299835 -20.13728394 21.756922 -20.15048218 20.60702515 C-20.10134318 13.30473468 -19.13582307 9.81801367 -14.07919312 4.49591064 C-9.26119546 0.58128755 -6.08890864 0.01813412 0 0 Z M-2.64169312 17.14044189 C-2.64169312 37.93044189 -2.64169312 58.72044189 -2.64169312 80.14044189 C4.34703469 75.5366136 4.34703469 75.5366136 10.99893188 70.59747314 C11.75947876 69.99870361 12.52002563 69.39993408 13.30361938 68.78302002 C14.4444397 67.87713135 14.4444397 67.87713135 15.60830688 66.95294189 C27.52770315 57.49860349 27.52770315 57.49860349 32.23330688 56.57794189 C38.94643407 57.78630479 43.21163472 63.92647188 47.44815063 68.90606689 C49.68698906 71.52491266 51.98740116 74.0827717 54.29580688 76.64044189 C55.06795532 77.49637939 55.84010376 78.35231689 56.63565063 79.23419189 C57.48836548 80.17778564 57.48836548 80.17778564 58.35830688 81.14044189 C62.02741686 80.5722169 63.60308923 79.19664591 66.10830688 76.51544189 C68.63250205 73.89433978 71.1536946 71.37864019 73.92080688 69.01544189 C76.66391797 66.66420382 79.32564878 64.2453355 81.95205688 61.76544189 C82.60359741 61.15072021 83.25513794 60.53599854 83.92642212 59.90264893 C85.22614813 58.67276986 86.5227021 57.43952721 87.81558228 56.20245361 C98.01411446 46.56239653 98.01411446 46.56239653 103.48330688 45.57794189 C110.7482022 46.99933446 114.51951484 54.1277916 118.54580688 59.76544189 C119.78789667 61.4878064 121.03132388 63.20920743 122.27627563 64.92950439 C122.82050171 65.68956787 123.36472778 66.44963135 123.92544556 67.23272705 C125.3602322 69.23618887 125.3602322 69.23618887 127.35830688 71.14044189 C127.35830688 53.32044189 127.35830688 35.50044189 127.35830688 17.14044189 C84.45830688 17.14044189 41.55830688 17.14044189 -2.64169312 17.14044189 Z M96.98330688 70.95294189 C95.64139282 72.18464111 95.64139282 72.18464111 94.27236938 73.44122314 C92.82990845 74.77733643 92.82990845 74.77733643 91.35830688 76.14044189 C89.86538656 77.51182257 88.37058496 78.88113122 86.87564087 80.25030518 C85.85629989 81.18419536 84.83759145 82.11877639 83.81948853 83.05401611 C79.90448982 86.64928262 75.95503326 90.20430283 71.99502563 93.74981689 C70.02357637 95.53726422 68.07019428 97.33749674 66.12783813 99.15606689 C50.51945452 113.76639711 50.51945452 113.76639711 45.10830688 114.70294189 C41.99281837 114.06568288 40.5265995 113.46934878 38.35830688 111.14044189 C37.3329403 108.35730402 37.24849231 106.6620611 37.85830688 103.76544189 C40.05282782 99.92503025 43.13383829 97.13212799 46.35830688 94.14044189 C42.04170386 88.13970966 37.33797381 82.60038126 32.35830688 77.14044189 C28.73727376 77.75628146 26.57369816 79.25985655 23.69033813 81.49200439 C22.79637329 82.17907471 21.90240845 82.86614502 20.98135376 83.57403564 C20.05387329 84.29719971 19.12639282 85.02036377 18.17080688 85.76544189 C17.26266235 86.46540283 16.35451782 87.16536377 15.41885376 87.88653564 C12.72646204 89.96412926 10.04179028 92.05136023 7.35830688 94.14044189 C6.48480591 94.81687744 5.61130493 95.49331299 4.71133423 96.19024658 C3.89745239 96.82092041 3.08357056 97.45159424 2.24502563 98.10137939 C1.51888062 98.66389404 0.7927356 99.22640869 0.04458618 99.80596924 C-1.5730903 101.03327863 -1.5730903 101.03327863 -2.64169312 102.14044189 C-2.64169312 111.05044189 -2.64169312 119.96044189 -2.64169312 129.14044189 C40.25830688 129.14044189 83.15830688 129.14044189 127.35830688 129.14044189 C129.42883233 104.70501162 129.42883233 104.70501162 118.99404907 87.94708252 C115.58538355 84.18228776 112.79417154 79.9014789 109.85830688 75.76544189 C108.6688995 74.10566512 107.47162083 72.45148512 106.26455688 70.80450439 C105.49595337 69.74416992 105.49595337 69.74416992 104.71182251 68.66241455 C104.26516235 68.16016357 103.8185022 67.6579126 103.35830688 67.14044189 C100.30343692 67.14044189 99.19763283 68.90701938 96.98330688 70.95294189 Z " fill="#000000" transform="translate(360.6416931152344,145.85955810546875)"/>
<path d="M0 0 C2.10311895 -0.00437289 4.20413715 -0.04069932 6.30688477 -0.07861328 C7.6473724 -0.08448203 8.98786998 -0.08845104 10.32836914 -0.09033203 C11.54516357 -0.0985498 12.76195801 -0.10676758 14.015625 -0.11523438 C17.76181363 0.46065712 18.90383199 1.39993312 21.17602539 4.37060547 C21.98461914 6.77294922 21.98461914 6.77294922 22.61352539 9.30810547 C23.94202366 12.9094562 24.80772655 14.1406026 28.10961914 16.20263672 C34.59171547 18.99952788 34.59171547 18.99952788 41.43774414 18.55419922 C43.17966788 17.8012707 44.90752786 17.01423247 46.61352539 16.18310547 C50.13648824 15.06606847 52.7664846 15.02936568 56.17602539 16.37060547 C59.61876161 19.0475384 62.55901646 22.14394692 65.55102539 25.30810547 C66.36958008 26.14535156 67.18813477 26.98259766 68.03149414 27.84521484 C75.18541026 35.21861264 75.18541026 35.21861264 75.16040039 38.28857422 C74.73743236 42.38431469 74.37007447 45.02778543 72.30102539 48.68310547 C70.6937164 53.95150715 72.66883069 56.96841603 74.97680664 61.79638672 C76.17602539 64.37060547 76.17602539 64.37060547 76.17602539 66.37060547 C76.85149414 66.54076172 77.52696289 66.71091797 78.22290039 66.88623047 C87.16808518 69.31642518 87.16808518 69.31642518 90.17602539 73.37060547 C92.33328776 77.68513021 91.40567564 83.44415638 91.42602539 88.18310547 C91.45696289 89.9668457 91.45696289 89.9668457 91.48852539 91.78662109 C91.49625977 93.50848633 91.49625977 93.50848633 91.50415039 95.26513672 C91.51816895 96.84065308 91.51816895 96.84065308 91.5324707 98.44799805 C91.12325312 101.80330197 90.16581698 103.66247865 88.17602539 106.37060547 C86.01977539 107.62841797 86.01977539 107.62841797 83.67602539 108.49560547 C77.89471125 110.67323379 75.84881751 113.39902348 73.23852539 118.99560547 C71.41405272 123.36522535 71.41405272 123.36522535 71.74633789 127.94873047 C72.8126324 130.14097232 73.98352222 132.24539446 75.17602539 134.37060547 C75.86352539 137.43310547 75.86352539 137.43310547 75.17602539 140.37060547 C73.18813949 143.37328627 70.69309391 145.80829552 68.17602539 148.37060547 C67.14796871 149.50289379 66.12208373 150.63715616 65.09790039 151.77294922 C63.97973066 152.97368043 62.85992894 154.17289387 61.73852539 155.37060547 C61.21363525 155.95914307 60.68874512 156.54768066 60.14794922 157.15405273 C57.21785778 160.19640822 55.2831366 161.74876843 50.96118164 161.84326172 C47.03416076 161.35289069 44.67288282 160.11903418 41.17602539 158.37060547 C36.79372777 158.56114015 33.0222041 160.09476454 29.00805664 161.74951172 C27.17602539 162.37060547 27.17602539 162.37060547 24.17602539 162.37060547 C24.07290039 163.23685547 23.96977539 164.10310547 23.86352539 164.99560547 C22.97768847 169.34425943 21.71143887 172.89155555 18.46679688 176.01708984 C13.70017812 178.8334742 7.62581873 177.88146148 2.23852539 177.87060547 C0.96299805 177.89896484 -0.3125293 177.92732422 -1.62670898 177.95654297 C-10.96597373 177.97613241 -10.96597373 177.97613241 -15.08959961 175.06591797 C-17.73723069 170.95135616 -19.82397461 167.40827135 -19.82397461 162.37060547 C-21.09241211 162.21591797 -21.09241211 162.21591797 -22.38647461 162.05810547 C-25.82397461 161.37060547 -25.82397461 161.37060547 -29.32397461 159.74560547 C-33.20337068 158.22155701 -34.87725858 158.23044306 -38.82397461 159.37060547 C-39.44272461 159.72123047 -40.06147461 160.07185547 -40.69897461 160.43310547 C-44.20925325 161.98175781 -47.15321082 162.34365775 -50.82397461 161.37060547 C-54.56816724 158.65549851 -57.61854972 155.37394635 -60.76147461 151.99560547 C-61.62321289 151.10615234 -62.48495117 150.21669922 -63.37280273 149.30029297 C-70.6545649 141.72588315 -70.6545649 141.72588315 -71.13647461 137.87060547 C-70.81938127 134.31916005 -70.0726392 132.88057846 -68.44897461 129.80810547 C-66.97258191 126.3333098 -66.75073429 124.71650678 -67.54272461 120.97607422 C-69.42182069 116.32531141 -71.02871781 112.51027543 -75.35913086 109.76123047 C-77.96255155 108.70856409 -77.96255155 108.70856409 -80.55444336 108.08154297 C-83.11887376 107.27822742 -84.17351665 106.46561402 -85.82397461 104.37060547 C-87.53689789 99.23183561 -87.00857807 93.81198661 -87.01147461 88.43310547 C-87.0237207 87.24007812 -87.0359668 86.04705078 -87.04858398 84.81787109 C-87.05051758 83.67125 -87.05245117 82.52462891 -87.05444336 81.34326172 C-87.05855225 80.29404541 -87.06266113 79.2448291 -87.06689453 78.16381836 C-86.82168193 75.34424306 -86.3606496 73.72470385 -84.82397461 71.37060547 C-82.80053711 70.14013672 -82.80053711 70.14013672 -80.44897461 69.18310547 C-79.67811523 68.85955078 -78.90725586 68.53599609 -78.11303711 68.20263672 C-75.82397461 67.37060547 -75.82397461 67.37060547 -73.63647461 67.05419922 C-71.59712675 66.52687139 -71.59712675 66.52687139 -70.84741211 64.26123047 C-70.63342773 63.38982422 -70.41944336 62.51841797 -70.19897461 61.62060547 C-69.45997652 58.70176944 -68.86555805 56.44473248 -67.38647461 53.80810547 C-66.54452871 50.15967324 -68.2574635 47.85254098 -69.83569336 44.56591797 C-71.23828485 41.45027995 -71.6103408 39.73053372 -70.82397461 36.37060547 C-68.82203579 33.37787659 -66.3447775 30.92947417 -63.82397461 28.37060547 C-62.85871633 27.32400899 -61.89529004 26.27572099 -60.93334961 25.22607422 C-59.89841291 24.12698317 -58.86195132 23.02932601 -57.82397461 21.93310547 C-57.33832031 21.40056152 -56.85266602 20.86801758 -56.35229492 20.31933594 C-53.72162879 17.61418392 -51.88751151 16.38790239 -48.22241211 15.39013672 C-44.74313203 15.37014086 -43.35555295 15.7249313 -40.44897461 17.49560547 C-37.80241121 18.81212423 -36.41222434 19.45227981 -33.46069336 19.04248047 C-31.18215479 18.26126724 -29.02538895 17.34645057 -26.82397461 16.37060547 C-25.80045898 16.12568359 -24.77694336 15.88076172 -23.72241211 15.62841797 C-20.60112502 14.61738185 -20.60112502 14.61738185 -19.24975586 11.62060547 C-18.88237305 10.54810547 -18.51499023 9.47560547 -18.13647461 8.37060547 C-14.79260435 -1.18987583 -8.95348567 -0.00209023 0 0 Z M-2.82397461 17.37060547 C-3.24356445 18.40121094 -3.24356445 18.40121094 -3.67163086 19.45263672 C-6.9695041 26.86489843 -6.9695041 26.86489843 -10.88647461 29.18310547 C-12.19624168 29.58788999 -13.50928114 29.98211947 -14.82397461 30.37060547 C-16.91494286 31.20590796 -18.99784278 32.06158089 -21.07397461 32.93310547 C-22.08975586 33.34689453 -23.10553711 33.76068359 -24.15209961 34.18701172 C-26.96815526 35.34382707 -26.96815526 35.34382707 -29.82397461 37.37060547 C-35.80987 37.86943008 -39.47835763 37.04341396 -44.82397461 34.37060547 C-47.13397461 36.68060547 -49.44397461 38.99060547 -51.82397461 41.37060547 C-51.32897461 42.56685547 -50.83397461 43.76310547 -50.32397461 44.99560547 C-48.35910223 49.74404705 -48.15182392 53.60508966 -49.99584961 58.44873047 C-50.77702148 60.01880859 -50.77702148 60.01880859 -51.57397461 61.62060547 C-53.57307757 65.68854754 -55.28402138 69.63088282 -56.69897461 73.93310547 C-58.11219405 77.60628342 -59.36806214 79.13865102 -62.88647461 80.93310547 C-64.18325624 81.45331153 -65.49574193 81.9369525 -66.82397461 82.37060547 C-68.30897461 82.86560547 -68.30897461 82.86560547 -69.82397461 83.37060547 C-69.82397461 86.67060547 -69.82397461 89.97060547 -69.82397461 93.37060547 C-68.2014752 94.20879704 -66.57588964 95.04101707 -64.94897461 95.87060547 C-64.04405273 96.33466797 -63.13913086 96.79873047 -62.20678711 97.27685547 C-59.95800602 98.50966136 -59.95800602 98.50966136 -57.82397461 98.37060547 C-57.67702148 99.02544922 -57.53006836 99.68029297 -57.37866211 100.35498047 C-56.02554479 105.8607682 -54.3222741 110.52310081 -51.57397461 115.49560547 C-47.92705754 122.4644668 -48.71929821 126.66669047 -50.88647461 133.93310547 C-51.19584961 134.73748047 -51.50522461 135.54185547 -51.82397461 136.37060547 C-49.96860721 138.57026785 -48.10310568 140.60454893 -45.82397461 142.37060547 C-42.82205146 142.37060547 -41.09177142 141.494204 -38.38647461 140.24560547 C-33.01956075 138.41300074 -28.35441006 140.86848697 -23.51147461 143.24560547 C-19.59648237 145.15176475 -16.06806301 146.62682309 -11.82397461 147.55810547 C-8.68081404 148.48426696 -7.95610844 149.16167857 -6.16381836 151.99560547 C-4.90004333 154.755493 -3.79519343 157.49599299 -2.82397461 160.37060547 C0.47602539 160.37060547 3.77602539 160.37060547 7.17602539 160.37060547 C7.35133789 159.64615234 7.52665039 158.92169922 7.70727539 158.17529297 C10.21469487 150.59237115 10.21469487 150.59237115 13.85424805 148.32519531 C17.88556462 146.49111412 22.10124317 145.24190101 26.33813477 143.97607422 C28.6368858 143.2187811 30.65096772 142.14947765 32.73852539 140.93310547 C36.83390666 139.07156853 38.87696163 139.21316523 43.17602539 140.37060547 C44.25883789 140.92748047 44.25883789 140.92748047 45.36352539 141.49560547 C47.13171163 142.52188131 47.13171163 142.52188131 49.11352539 142.30810547 C52.10840968 140.94679443 53.96684767 138.76388134 56.17602539 136.37060547 C55.95946289 135.79052734 55.74290039 135.21044922 55.51977539 134.61279297 C55.24133789 133.83162109 54.96290039 133.05044922 54.67602539 132.24560547 C54.39758789 131.47990234 54.11915039 130.71419922 53.83227539 129.92529297 C52.37922965 124.26879346 53.16509009 120.71857525 55.98852539 115.68310547 C58.21171304 111.53211874 59.67881294 107.84487015 60.67602539 103.24560547 C61.34399414 100.51904297 61.34399414 100.51904297 62.17602539 98.37060547 C64.98852539 96.87060547 64.98852539 96.87060547 68.17602539 96.37060547 C70.19072637 95.40056426 72.19524586 94.40815665 74.17602539 93.37060547 C74.17602539 90.07060547 74.17602539 86.77060547 74.17602539 83.37060547 C73.48895508 83.13986328 72.80188477 82.90912109 72.09399414 82.67138672 C71.19293945 82.34525391 70.29188477 82.01912109 69.36352539 81.68310547 C68.47020508 81.36986328 67.57688477 81.05662109 66.65649414 80.73388672 C61.77394124 78.05040489 60.51497362 72.93716652 58.67602539 67.93310547 C57.43316968 64.55907091 56.1877868 61.3928888 54.50805664 58.21044922 C53.20095775 55.42376038 52.84154727 54.31824662 53.36352539 51.37060547 C53.53754883 50.36513672 53.53754883 50.36513672 53.71508789 49.33935547 C54.35379039 46.61133801 55.1927774 43.9926001 56.17602539 41.37060547 C53.86602539 39.06060547 51.55602539 36.75060547 49.17602539 34.37060547 C48.18602539 34.86560547 47.19602539 35.36060547 46.17602539 35.87060547 C42.12390176 37.54483619 38.50685669 38.29864075 34.17602539 37.37060547 C31.07331585 36.02270706 28.12668594 34.49751397 25.15258789 32.88623047 C22.46593134 31.51822162 20.00459254 30.61798096 17.11352539 29.80810547 C14.10553436 28.87589924 13.35592532 28.59248204 11.30102539 26.05810547 C10.92977539 25.17123047 10.55852539 24.28435547 10.17602539 23.37060547 C9.61915039 22.27748047 9.06227539 21.18435547 8.48852539 20.05810547 C8.05540039 19.17123047 7.62227539 18.28435547 7.17602539 17.37060547 C3.87602539 17.37060547 0.57602539 17.37060547 -2.82397461 17.37060547 Z " fill="#000000" transform="translate(253.823974609375,6.62939453125)"/>
<path d="M0 0 C1.14674698 -0.00571014 2.29349396 -0.01142029 3.47499084 -0.01730347 C4.73425888 -0.01842133 5.99352692 -0.01953918 7.29095459 -0.02069092 C8.62977739 -0.02532001 9.96859887 -0.03034479 11.30741882 -0.03573608 C14.94602439 -0.04885497 18.58461151 -0.05530426 22.22323704 -0.05974674 C24.49758972 -0.06267882 26.77193738 -0.06678392 29.04628754 -0.07125092 C36.16525984 -0.08492566 43.28422063 -0.09459194 50.40320516 -0.09845281 C58.61507118 -0.10293104 66.82677055 -0.12046805 75.0385859 -0.1494534 C81.38944979 -0.17109012 87.74026687 -0.18115818 94.09116721 -0.18249393 C97.88252148 -0.1835407 101.67371909 -0.18942107 105.46503448 -0.20731354 C109.03391243 -0.22382834 112.60251653 -0.22593337 116.17141914 -0.21717453 C118.09879171 -0.21604063 120.02615532 -0.22973243 121.95347595 -0.243927 C129.10698529 -0.20952451 134.88820166 -0.07687465 140.44622803 4.89434814 C141.14618896 5.78960205 141.14618896 5.78960205 141.86029053 6.70294189 C142.58345459 7.60206299 142.58345459 7.60206299 143.32122803 8.51934814 C145.44693911 11.4796505 145.61516181 13.36916994 145.63246155 16.97216797 C145.6431945 18.50307571 145.6431945 18.50307571 145.65414429 20.06491089 C145.65683319 21.18908417 145.65952209 22.31325745 145.66229248 23.47149658 C145.66886368 24.65208649 145.67543488 25.83267639 145.6822052 27.04904175 C145.70197447 30.97012685 145.71360929 34.89119859 145.72357178 38.81231689 C145.72761937 40.16246817 145.73173629 41.51261923 145.73592186 42.86277008 C145.75497616 49.20699905 145.76920568 55.55121638 145.77753383 61.89546847 C145.78730232 69.21599053 145.8136103 76.5362099 145.85403472 83.85662532 C145.88421346 89.51616316 145.89900442 95.17561433 145.90231484 100.83523107 C145.90466373 104.21472043 145.91360203 107.59388653 145.93877602 110.97328949 C145.96306593 114.74637567 145.96222038 118.51866901 145.95526123 122.29180908 C145.97447632 123.96592361 145.97447632 123.96592361 145.99407959 125.67385864 C145.94494059 132.97614911 144.97942048 136.46287012 139.92279053 141.78497314 C135.10479287 145.69959624 131.93250605 146.26274967 125.84359741 146.28088379 C124.69403061 146.28659393 123.54446381 146.29230408 122.36006165 146.29818726 C120.47419594 146.29986404 120.47419594 146.29986404 118.55023193 146.30157471 C117.20963912 146.30620523 115.86904762 146.31123021 114.52845764 146.31661987 C110.88997842 146.32972187 107.25151763 146.33618433 103.61301851 146.34063053 C101.33883575 146.34356434 99.06465799 146.34766969 96.79047775 146.3521347 C89.67204488 146.36580279 82.55362348 146.37547326 75.4351784 146.3793366 C67.22331249 146.38381816 59.01161297 146.40137344 50.79979765 146.43033719 C44.44807998 146.45196134 38.0964091 146.46204124 31.74465501 146.46337771 C27.95278864 146.46442506 24.16107881 146.47031806 20.36925125 146.48819733 C16.80200463 146.50469118 13.23503204 146.50682731 9.66776085 146.49805832 C7.73901246 146.49692247 5.81027312 146.51062903 3.88157654 146.52481079 C-3.71938553 146.48816719 -8.42026126 145.88324827 -14.26470947 140.70294189 C-17.65575466 136.8409182 -18.7627177 134.21295399 -18.78213501 129.07493591 C-18.79066498 128.05302658 -18.79919495 127.03111725 -18.8079834 125.97824097 C-18.80707703 124.86282928 -18.80617065 123.7474176 -18.80523682 122.59820557 C-18.81195404 121.4189299 -18.81867126 120.23965424 -18.82559204 119.02464294 C-18.84133483 115.79306774 -18.84794712 112.5616468 -18.84922361 109.33003783 C-18.85064648 107.3091133 -18.85491868 105.2882156 -18.86021805 103.26729774 C-18.87871718 96.21124185 -18.886889 89.15526147 -18.88531494 82.09918213 C-18.88411425 75.53145406 -18.90520226 68.96405501 -18.93680227 62.39641017 C-18.96299561 56.7503913 -18.97368093 51.10447967 -18.97240412 45.45840055 C-18.97189529 42.08954729 -18.97753413 38.72098634 -18.99876022 35.35219383 C-19.01836299 31.59147258 -19.01260331 27.83159678 -19.00054932 24.07086182 C-19.01740784 22.40685333 -19.01740784 22.40685333 -19.03460693 20.70922852 C-18.9824066 14.29776743 -18.37987588 10.33226869 -14.51470947 5.14044189 C-9.64580058 1.36455336 -6.09030951 0.01814514 0 0 Z M-1.51470947 17.14044189 C-1.51470947 54.10044189 -1.51470947 91.06044189 -1.51470947 129.14044189 C41.38529053 129.14044189 84.28529053 129.14044189 128.48529053 129.14044189 C128.48529053 92.18044189 128.48529053 55.22044189 128.48529053 17.14044189 C85.58529053 17.14044189 42.68529053 17.14044189 -1.51470947 17.14044189 Z " fill="#000000" transform="translate(25.51470947265625,145.85955810546875)"/>
<path d="M0 0 C9.01015908 7.62501522 15.58814034 17.13859451 16.60986328 29.14453125 C17.43993622 43.47295877 15.43531809 54.47206709 6.4296875 66.02734375 C3.9296875 68.77734375 3.9296875 68.77734375 1.4296875 71.02734375 C0.5015625 71.87296875 -0.4265625 72.71859375 -1.3828125 73.58984375 C-11.12460938 81.55357487 -23.14427075 83.49028714 -35.43359375 82.88671875 C-46.60915526 81.36353111 -58.27778339 75.34490814 -65.546875 66.66796875 C-74.9515295 53.02899114 -77.91040727 39.89786501 -74.921875 23.4609375 C-71.32532728 11.67225332 -63.54903106 1.96535382 -53.08984375 -4.5078125 C-35.83099883 -13.68577189 -15.45720808 -11.86305483 0 0 Z M-53.5703125 19.02734375 C-58.96430651 26.30923566 -59.57825334 34.20052201 -58.5703125 43.02734375 C-55.44300755 52.69775536 -49.97814671 59.02299141 -41.1953125 63.90234375 C-33.59003954 66.26260088 -26.11779571 66.92208775 -18.5703125 64.02734375 C-10.57275201 59.79950081 -4.77787839 54.07471778 -1.30078125 45.64453125 C0.87717565 37.84115628 0.20715728 29.64668852 -3.1796875 22.3125 C-7.68144923 14.9149421 -14.24984365 9.92221268 -22.51171875 7.4453125 C-35.56724729 4.79456951 -44.80464774 9.5522277 -53.5703125 19.02734375 Z " fill="#000000" transform="translate(285.5703125,58.97265625)"/>
<path d="M0 0 C8.32518645 3.55176117 16.15562712 8.28044071 23.9375 12.875 C24.9793042 13.48851318 26.0211084 14.10202637 27.09448242 14.73413086 C29.14268451 15.94255253 31.18969263 17.1530008 33.23535156 18.36572266 C35.59507817 19.76063699 37.96285584 21.13972726 40.3359375 22.51171875 C41.49531085 23.19443159 42.65422201 23.87793043 43.8125 24.5625 C44.76769531 25.12066406 45.72289062 25.67882812 46.70703125 26.25390625 C50.05135194 28.8006036 51.70320138 31.31279342 52.43359375 35.46484375 C52.43488281 36.28082031 52.43617187 37.09679687 52.4375 37.9375 C52.45683594 38.75089844 52.47617188 39.56429687 52.49609375 40.40234375 C51.60093839 45.08957456 49.06626666 48.22924126 45.24536133 50.99121094 C44.2014624 51.56645508 43.15756348 52.14169922 42.08203125 52.734375 C41.5115506 53.05435959 40.94106995 53.37434418 40.353302 53.70402527 C38.51336436 54.73256504 36.66332945 55.74121579 34.8125 56.75 C33.54350486 57.45493838 32.27535956 58.16140871 31.00805664 58.86938477 C29.11451794 59.92677643 27.22043533 60.98302146 25.32316589 62.03370667 C19.43905708 65.29306646 13.65316732 68.70500138 7.88793945 72.16894531 C2.59402272 75.32264981 -1.78647186 76.84729929 -8 76 C-12.48895031 73.71317626 -14.76780283 71.46963914 -17 67 C-17.38768005 64.23719788 -17.38768005 64.23719788 -17.40405273 61.20336914 C-17.41673691 60.06190933 -17.42942108 58.92044952 -17.44248962 57.74440002 C-17.43955399 56.52034958 -17.43661835 55.29629913 -17.43359375 54.03515625 C-17.4388356 52.76909042 -17.44407745 51.5030246 -17.44947815 50.19859314 C-17.45589792 47.52278484 -17.45600412 44.84783052 -17.44604492 42.17211914 C-17.43455978 38.75452627 -17.45476522 35.33796738 -17.48396206 31.92051029 C-17.50679128 28.64622088 -17.49985448 25.37200657 -17.49609375 22.09765625 C-17.50732773 20.87563004 -17.51856171 19.65360382 -17.53013611 18.39454651 C-17.47767748 11.99383351 -17.41697227 7.81261358 -13 3 C-9.02733933 -0.31055056 -5.00453516 -1.02417666 0 0 Z M0 20 C0 31.88 0 43.76 0 56 C7.55071572 52.22464214 14.95675371 48.46257906 22.25 44.25 C23.10207031 43.76917969 23.95414063 43.28835937 24.83203125 42.79296875 C25.63511719 42.33019531 26.43820313 41.86742187 27.265625 41.390625 C27.98524414 40.97844727 28.70486328 40.56626953 29.44628906 40.14160156 C29.95901367 39.76487305 30.47173828 39.38814453 31 39 C31 38.34 31 37.68 31 37 C27.55048908 35.05931511 24.09993359 33.12050179 20.6484375 31.18334961 C18.90310147 30.20327999 17.15857515 29.22176886 15.4140625 28.24023438 C14.30546875 27.61826172 13.196875 26.99628906 12.0546875 26.35546875 C11.03874512 25.78465576 10.02280273 25.21384277 8.97607422 24.62573242 C6.02212099 23.01208398 3.01060804 21.50530402 0 20 Z " fill="#000000" transform="translate(73,181)"/>
<path d="M0 0 C4.62930372 0.82666138 5.76131317 1.78262441 8.5 5.625 C9.20134494 9.80061326 9.08086427 13.92102943 8.98828125 18.14453125 C8.98120651 19.35823898 8.97413177 20.57194672 8.96684265 21.82243347 C8.93887889 25.69475212 8.87613091 29.56561917 8.8125 33.4375 C8.78741996 36.06443223 8.76460629 38.69138714 8.74414062 41.31835938 C8.6890453 47.7544006 8.60539655 54.18959659 8.5 60.625 C9.34302673 60.61833817 10.18605347 60.61167633 11.05462646 60.60481262 C19.00006754 60.54469693 26.9454322 60.49902329 34.89104843 60.46956348 C38.97596693 60.45390871 43.06069748 60.43267409 47.14550781 60.39868164 C51.08772885 60.36608114 55.02976913 60.34814557 58.97211456 60.34036827 C60.47602433 60.33482597 61.97992422 60.32400315 63.48375702 60.30780983 C65.59062566 60.28602566 67.69674776 60.28303338 69.80371094 60.28442383 C71.00284119 60.27776199 72.20197144 60.27110016 73.43743896 60.26423645 C76.76834005 60.65660992 78.1331585 61.29656508 80.5 63.625 C81.72874663 67.06407821 81.82366869 70.50687179 80.8125 74 C79.14043369 76.07017734 78.00339966 76.6655119 75.5 77.625 C72.95152143 77.81991526 70.51288194 77.90858446 67.96508789 77.8996582 C67.21175674 77.90476913 66.4584256 77.90988007 65.68226624 77.91514587 C63.19564843 77.92902929 60.70930817 77.92808609 58.22265625 77.92578125 C56.49157102 77.92966884 54.76048673 77.93400364 53.02940369 77.93876648 C49.40213935 77.94622597 45.77497236 77.94593936 42.14770508 77.94067383 C37.50272171 77.93487916 32.85813709 77.95181131 28.21321964 77.9750185 C24.63839901 77.98976039 21.06367431 77.99062693 17.48882866 77.98750877 C15.77643481 77.98802174 14.06403556 77.99325497 12.35167122 78.00332069 C9.95562049 78.01567696 7.56034524 78.00889878 5.16430664 77.99731445 C4.45920959 78.00495819 3.75411255 78.01260193 3.02764893 78.02047729 C-1.30885022 77.97420757 -4.0475005 77.27919923 -7.5 74.625 C-8.90275187 71.81949625 -8.65839732 69.46516477 -8.69287109 66.3269043 C-8.70104858 65.68115448 -8.70922607 65.03540466 -8.71765137 64.37008667 C-8.74249426 62.22980679 -8.7590188 60.08959321 -8.7734375 57.94921875 C-8.77876118 57.21811197 -8.78408485 56.4870052 -8.78956985 55.73374367 C-8.8162973 51.86360345 -8.83567298 47.99349543 -8.85009766 44.12329102 C-8.86674045 40.12820748 -8.9115148 36.13394972 -8.9624691 32.13917828 C-8.99614614 29.0653439 -9.00767547 25.99170539 -9.01332474 22.91770363 C-9.02003661 21.44528712 -9.03525738 19.97288347 -9.05921555 18.50064659 C-9.09088279 16.43684247 -9.09090361 14.37526316 -9.08349609 12.3112793 C-9.09158295 11.13816696 -9.0996698 9.96505463 -9.10800171 8.75639343 C-8.0802906 3.46336913 -5.2245021 0.9329468 0 0 Z " fill="#000000" transform="translate(90.5,304.375)"/>
<path d="M0 0 C3.33761045 2.15090451 4.73470933 3.20412799 6 7 C6.10397352 9.0128434 6.148593 11.02894562 6.16113281 13.04443359 C6.17074036 14.28937592 6.1803479 15.53431824 6.19024658 16.81698608 C6.19509453 18.17746802 6.19937336 19.53795209 6.203125 20.8984375 C6.20887904 22.29464723 6.21463674 23.69085695 6.22039795 25.08706665 C6.23089849 28.01410286 6.23674738 30.94111167 6.24023438 33.86816406 C6.24571806 37.61301519 6.26974696 41.35750253 6.29820633 45.10223961 C6.31685868 47.98649137 6.32203967 50.87065594 6.32357025 53.75496292 C6.32659132 55.13522964 6.33460147 56.51549502 6.34775543 57.89570236 C6.36486869 59.82932046 6.36108324 61.76308908 6.35644531 63.69677734 C6.36191376 65.34533218 6.36191376 65.34533218 6.36749268 67.02719116 C5.94704124 70.42840652 5.03971115 72.26721469 3 75 C-0.62952181 77.41968121 -3.31664535 77.30252278 -7.51318359 77.30639648 C-8.27612228 77.31472 -9.03906097 77.32304352 -9.82511902 77.33161926 C-12.34961029 77.35573311 -14.87384324 77.36449298 -17.3984375 77.37109375 C-19.15337197 77.38005906 -20.90830565 77.38918089 -22.66323853 77.39845276 C-26.34354511 77.41494908 -30.02376065 77.42264403 -33.70410156 77.42553711 C-38.4177062 77.43092153 -43.13045409 77.46860072 -47.84381676 77.51428127 C-51.46925981 77.54403911 -55.09449624 77.55126038 -58.72005081 77.55226326 C-60.45759632 77.55646815 -62.19514231 77.56891331 -63.9325676 77.58978081 C-66.36502632 77.61667007 -68.79549537 77.6118786 -71.22802734 77.59936523 C-71.94404617 77.61419952 -72.660065 77.62903381 -73.39778137 77.64431763 C-77.30098314 77.58720392 -78.87990438 77.09815521 -81.94424438 74.59364319 C-83.95203227 72.06051847 -84.68775895 71.09427521 -84.625 67.9375 C-84 64 -84 64 -81.8865509 61.7822876 C-78.36377144 59.60716359 -76.31042229 59.51532154 -72.19018555 59.54589844 C-71.19422615 59.54502228 -71.19422615 59.54502228 -70.17814636 59.54412842 C-67.99712698 59.54690133 -65.81749747 59.57795195 -63.63671875 59.609375 C-62.11929572 59.6168403 -60.60186302 59.62253187 -59.08442688 59.62652588 C-55.10083144 59.64175968 -51.1178243 59.6810212 -47.13446045 59.7253418 C-43.0656327 59.76634368 -38.9967094 59.78454733 -34.92773438 59.8046875 C-26.95155369 59.8475184 -18.97585014 59.9157415 -11 60 C-11.01110306 59.30731018 -11.02220612 58.61462036 -11.03364563 57.90093994 C-11.14416656 50.69873941 -11.21963778 43.49677928 -11.2746582 36.29394531 C-11.29699963 33.60484968 -11.33180593 30.91634206 -11.37719727 28.22753906 C-11.43777116 24.36506256 -11.46619417 20.50348938 -11.48828125 16.640625 C-11.51408768 15.4363385 -11.5398941 14.232052 -11.56648254 12.99127197 C-11.56928615 4.67030671 -11.56928615 4.67030671 -8.65698242 1.24121094 C-5.39729728 -0.28155294 -3.55764512 -0.59294085 0 0 Z " fill="#000000" transform="translate(426,305)"/>
<path d="M0 0 C4.55788249 2.83601577 4.55788249 2.83601577 5.6262207 5.64868164 C6.16706482 9.05094795 6.16272568 12.43522356 6.16796875 15.87109375 C6.17129715 16.63043716 6.17462555 17.38978058 6.17805481 18.1721344 C6.18310749 19.77498775 6.18546365 21.37785158 6.18530273 22.98071289 C6.18748924 25.42547005 6.2056622 27.86977572 6.22460938 30.31445312 C6.22754369 31.87499846 6.22952823 33.43554594 6.23046875 34.99609375 C6.23765427 35.72332138 6.24483978 36.45054901 6.25224304 37.19981384 C6.23027292 42.10878678 5.45573808 45.6546442 2.875 49.8125 C-0.22576351 51.77631689 -3.50262935 51.6416547 -7 51 C-10.24459884 48.67054442 -11.32452634 46.84712409 -12 43 C-12.10659993 40.36725035 -12.16395109 37.76174502 -12.16796875 35.12890625 C-12.17129715 34.36956284 -12.17462555 33.61021942 -12.17805481 32.8278656 C-12.18310749 31.22501225 -12.18546365 29.62214842 -12.18530273 28.01928711 C-12.18748924 25.57452995 -12.2056622 23.13022428 -12.22460938 20.68554688 C-12.22754369 19.12500154 -12.22952823 17.56445406 -12.23046875 16.00390625 C-12.23765427 15.27667862 -12.24483978 14.54945099 -12.25224304 13.80018616 C-12.22979577 8.78459903 -11.81506336 4.87988705 -8.25 1.1875 C-5.22105071 -0.41111212 -3.38597949 -0.48371136 0 0 Z " fill="#000000" transform="translate(259,187)"/>
<path d="M0 0 C2.92837797 2.45027545 4.56680768 4.19920878 5.47265625 7.96484375 C5.76995587 11.93646173 5.05277801 13.90636159 3.0625 17.4375 C-0.39241411 20.3283465 -2.36975197 21.02505885 -6.78125 21.23828125 C-11.10222159 20.77423324 -13.7589048 18.5108985 -16.4375 15.25 C-17.32494823 11.70020709 -17.08221461 8.45212761 -16 5 C-11.0786202 -0.9308936 -7.33327885 -2.02297348 0 0 Z " fill="#000000" transform="translate(426,186)"/>
</svg>
